<mxfile host="app.diagrams.net" modified="2021-02-25T09:59:43.672Z" agent="5.0 (Windows NT 10.0; Win64; x64) AppleWebKit/537.36 (KHTML, like Gecko) Chrome/88.0.4324.182 Safari/537.36" etag="aA5drirqNMg6Ve7w9UY_" version="14.4.2" type="github">
  <diagram name="Page-1" id="12e1b939-464a-85fe-373e-61e167be1490">
    <mxGraphModel dx="2570" dy="1413" grid="0" gridSize="10" guides="1" tooltips="1" connect="1" arrows="1" fold="1" page="1" pageScale="1.5" pageWidth="4681" pageHeight="3300" background="#ffffff" math="0" shadow="0">
      <root>
        <mxCell id="0" />
        <mxCell id="1" parent="0" />
        <mxCell id="60da8b9f42644d3a-2" value="" style="whiteSpace=wrap;html=1;rounded=1;shadow=0;strokeWidth=8;fontSize=20;align=center;fillColor=#FED217;strokeColor=#FFFFFF;" parent="1" vertex="1">
          <mxGeometry x="1040" y="490" width="1446" height="430" as="geometry" />
        </mxCell>
        <mxCell id="60da8b9f42644d3a-4" value="Blog&lt;div&gt;Keywords&lt;/div&gt;&lt;div&gt;Social Media&lt;/div&gt;" style="text;html=1;strokeColor=none;fillColor=none;align=center;verticalAlign=middle;whiteSpace=wrap;rounded=0;shadow=0;fontSize=14;fontColor=#FFFFFF;" parent="1" vertex="1">
          <mxGeometry x="1309" y="1190" width="280" height="90" as="geometry" />
        </mxCell>
        <mxCell id="60da8b9f42644d3a-6" value="" style="line;strokeWidth=2;html=1;rounded=0;shadow=0;fontSize=27;align=center;fillColor=none;strokeColor=#FFFFFF;" parent="1" vertex="1">
          <mxGeometry x="1282" y="945" width="240" height="10" as="geometry" />
        </mxCell>
        <mxCell id="60da8b9f42644d3a-7" value="" style="line;strokeWidth=2;html=1;rounded=0;shadow=0;fontSize=27;align=center;fillColor=none;strokeColor=#FFFFFF;" parent="1" vertex="1">
          <mxGeometry x="1329" y="1170" width="240" height="10" as="geometry" />
        </mxCell>
        <mxCell id="60da8b9f42644d3a-8" value="地形仿真" style="ellipse;whiteSpace=wrap;html=1;rounded=0;shadow=0;strokeWidth=6;fontSize=20;align=center;fillColor=#BFB4A9;strokeColor=#FFFFFF;fontColor=#1A1A1A;" parent="1" vertex="1">
          <mxGeometry x="1466" y="602.5" width="115" height="115" as="geometry" />
        </mxCell>
        <mxCell id="60da8b9f42644d3a-9" value="" style="html=1;shadow=0;dashed=0;align=center;verticalAlign=middle;shape=mxgraph.arrows2.stylisedArrow;dy=0.6;dx=40;notch=15;feather=0.4;rounded=0;strokeWidth=1;fontSize=27;strokeColor=none;fillColor=#fff2cc;" parent="1" vertex="1">
          <mxGeometry x="1660" y="2178" width="100" height="60" as="geometry" />
        </mxCell>
        <mxCell id="60da8b9f42644d3a-18" value="CONVERT" style="text;html=1;strokeColor=none;fillColor=none;align=center;verticalAlign=middle;whiteSpace=wrap;rounded=0;shadow=0;fontSize=27;fontColor=#FFFFFF;fontStyle=1" parent="1" vertex="1">
          <mxGeometry x="1850" y="2030" width="280" height="60" as="geometry" />
        </mxCell>
        <mxCell id="60da8b9f42644d3a-19" value="Forms&lt;div&gt;Calls-to-Action&lt;/div&gt;&lt;div&gt;Landing Pages&lt;/div&gt;" style="text;html=1;strokeColor=none;fillColor=none;align=center;verticalAlign=middle;whiteSpace=wrap;rounded=0;shadow=0;fontSize=14;fontColor=#FFFFFF;" parent="1" vertex="1">
          <mxGeometry x="1850" y="2330" width="280" height="90" as="geometry" />
        </mxCell>
        <mxCell id="60da8b9f42644d3a-22" value="&lt;font style=&quot;font-size: 20px&quot;&gt;军事仿真&lt;/font&gt;" style="ellipse;whiteSpace=wrap;html=1;rounded=0;shadow=0;strokeWidth=6;fontSize=14;align=center;fillColor=#397DAA;strokeColor=#FFFFFF;fontColor=#FFFFFF;" parent="1" vertex="1">
          <mxGeometry x="1696" y="602.5" width="115" height="115" as="geometry" />
        </mxCell>
        <mxCell id="OPurnYvA9Z5oqh6DCdtn-1" value="" style="whiteSpace=wrap;html=1;rounded=1;shadow=0;strokeWidth=8;fontSize=20;align=center;fillColor=#C4C400;strokeColor=none;" vertex="1" parent="1">
          <mxGeometry x="1040" y="820" width="1446" height="430" as="geometry" />
        </mxCell>
        <mxCell id="OPurnYvA9Z5oqh6DCdtn-2" value="" style="whiteSpace=wrap;html=1;rounded=1;shadow=0;strokeWidth=8;fontSize=20;align=center;strokeColor=none;fillColor=#78C728;" vertex="1" parent="1">
          <mxGeometry x="1040" y="1120" width="1446" height="430" as="geometry" />
        </mxCell>
        <mxCell id="OPurnYvA9Z5oqh6DCdtn-5" value="" style="shape=step;perimeter=stepPerimeter;whiteSpace=wrap;html=1;fixedSize=1;gradientColor=none;fillColor=#D98383;" vertex="1" parent="1">
          <mxGeometry x="1102" y="615" width="214" height="90" as="geometry" />
        </mxCell>
        <mxCell id="OPurnYvA9Z5oqh6DCdtn-6" value="应用层" style="text;html=1;strokeColor=none;fillColor=none;align=center;verticalAlign=middle;whiteSpace=wrap;rounded=0;fontSize=30;" vertex="1" parent="1">
          <mxGeometry x="1156" y="650" width="120" height="20" as="geometry" />
        </mxCell>
        <mxCell id="OPurnYvA9Z5oqh6DCdtn-7" value="" style="shape=step;perimeter=stepPerimeter;whiteSpace=wrap;html=1;fixedSize=1;gradientColor=none;fillColor=#FF9933;" vertex="1" parent="1">
          <mxGeometry x="1102" y="920" width="214" height="90" as="geometry" />
        </mxCell>
        <mxCell id="OPurnYvA9Z5oqh6DCdtn-8" value="" style="shape=step;perimeter=stepPerimeter;whiteSpace=wrap;html=1;fixedSize=1;gradientColor=none;fillColor=#EA6B66;" vertex="1" parent="1">
          <mxGeometry x="1109" y="1255" width="214" height="90" as="geometry" />
        </mxCell>
        <mxCell id="OPurnYvA9Z5oqh6DCdtn-10" value="" style="whiteSpace=wrap;html=1;rounded=1;shadow=0;strokeWidth=8;fontSize=20;align=center;strokeColor=none;fillColor=#007038;" vertex="1" parent="1">
          <mxGeometry x="1040" y="1450" width="1446" height="400" as="geometry" />
        </mxCell>
        <mxCell id="OPurnYvA9Z5oqh6DCdtn-11" value="" style="shape=step;perimeter=stepPerimeter;whiteSpace=wrap;html=1;fixedSize=1;gradientColor=none;fillColor=#B06A6A;" vertex="1" parent="1">
          <mxGeometry x="1102" y="1590" width="214" height="90" as="geometry" />
        </mxCell>
        <mxCell id="OPurnYvA9Z5oqh6DCdtn-12" value="&lt;font style=&quot;font-size: 20px&quot; color=&quot;#ffffff&quot;&gt;海洋环境&lt;/font&gt;" style="ellipse;whiteSpace=wrap;html=1;rounded=0;shadow=0;strokeWidth=6;fontSize=14;align=center;strokeColor=#FFFFFF;fillColor=#009900;" vertex="1" parent="1">
          <mxGeometry x="1916" y="602.5" width="115" height="115" as="geometry" />
        </mxCell>
        <mxCell id="OPurnYvA9Z5oqh6DCdtn-13" value="&lt;font style=&quot;font-size: 20px&quot;&gt;模型使用&lt;/font&gt;" style="ellipse;whiteSpace=wrap;html=1;rounded=0;shadow=0;strokeWidth=6;fontSize=14;align=center;strokeColor=#FFFFFF;fontColor=#FFFFFF;fillColor=#FF8000;" vertex="1" parent="1">
          <mxGeometry x="2148.5" y="602.5" width="115" height="115" as="geometry" />
        </mxCell>
        <mxCell id="OPurnYvA9Z5oqh6DCdtn-14" value="管理层" style="text;html=1;strokeColor=none;fillColor=none;align=center;verticalAlign=middle;whiteSpace=wrap;rounded=0;fontSize=30;" vertex="1" parent="1">
          <mxGeometry x="1149" y="955" width="120" height="20" as="geometry" />
        </mxCell>
        <mxCell id="OPurnYvA9Z5oqh6DCdtn-23" value="" style="shape=cube;whiteSpace=wrap;html=1;boundedLbl=1;backgroundOutline=1;darkOpacity=0.05;darkOpacity2=0.1;strokeColor=#FFFFFF;fillColor=#C4C400;gradientColor=none;fontSize=20;fontColor=#C4C400;" vertex="1" parent="1">
          <mxGeometry x="1436" y="900" width="180" height="130" as="geometry" />
        </mxCell>
        <mxCell id="OPurnYvA9Z5oqh6DCdtn-24" value="" style="shape=cube;whiteSpace=wrap;html=1;boundedLbl=1;backgroundOutline=1;darkOpacity=0.05;darkOpacity2=0.1;strokeColor=#FFFFFF;fillColor=#C4C400;gradientColor=none;fontSize=20;fontColor=#C4C400;" vertex="1" parent="1">
          <mxGeometry x="1663.5" y="900" width="180" height="130" as="geometry" />
        </mxCell>
        <mxCell id="OPurnYvA9Z5oqh6DCdtn-25" value="" style="shape=cube;whiteSpace=wrap;html=1;boundedLbl=1;backgroundOutline=1;darkOpacity=0.05;darkOpacity2=0.1;strokeColor=#FFFFFF;fillColor=#C4C400;gradientColor=none;fontSize=20;fontColor=#C4C400;" vertex="1" parent="1">
          <mxGeometry x="1883.5" y="900" width="180" height="130" as="geometry" />
        </mxCell>
        <mxCell id="OPurnYvA9Z5oqh6DCdtn-26" value="" style="shape=cube;whiteSpace=wrap;html=1;boundedLbl=1;backgroundOutline=1;darkOpacity=0.05;darkOpacity2=0.1;strokeColor=#FFFFFF;fillColor=#C4C400;gradientColor=none;fontSize=20;fontColor=#C4C400;" vertex="1" parent="1">
          <mxGeometry x="2116" y="900" width="180" height="130" as="geometry" />
        </mxCell>
        <mxCell id="OPurnYvA9Z5oqh6DCdtn-27" value="节点工厂" style="text;html=1;strokeColor=none;fillColor=none;align=center;verticalAlign=middle;whiteSpace=wrap;rounded=0;fontSize=30;" vertex="1" parent="1">
          <mxGeometry x="1466" y="970" width="125" height="20" as="geometry" />
        </mxCell>
        <mxCell id="OPurnYvA9Z5oqh6DCdtn-28" value="渲染工厂" style="text;html=1;strokeColor=none;fillColor=none;align=center;verticalAlign=middle;whiteSpace=wrap;rounded=0;fontSize=30;" vertex="1" parent="1">
          <mxGeometry x="1700.5" y="970" width="125" height="20" as="geometry" />
        </mxCell>
        <mxCell id="OPurnYvA9Z5oqh6DCdtn-29" value="模型工厂" style="text;html=1;strokeColor=none;fillColor=none;align=center;verticalAlign=middle;whiteSpace=wrap;rounded=0;fontSize=30;" vertex="1" parent="1">
          <mxGeometry x="1926" y="970" width="125" height="20" as="geometry" />
        </mxCell>
        <mxCell id="OPurnYvA9Z5oqh6DCdtn-30" value="数据工厂" style="text;html=1;strokeColor=none;fillColor=none;align=center;verticalAlign=middle;whiteSpace=wrap;rounded=0;fontSize=30;" vertex="1" parent="1">
          <mxGeometry x="2151" y="970" width="125" height="20" as="geometry" />
        </mxCell>
        <mxCell id="OPurnYvA9Z5oqh6DCdtn-33" value="结构层" style="text;html=1;strokeColor=none;fillColor=none;align=center;verticalAlign=middle;whiteSpace=wrap;rounded=0;fontSize=30;" vertex="1" parent="1">
          <mxGeometry x="1156" y="1290" width="120" height="20" as="geometry" />
        </mxCell>
        <mxCell id="OPurnYvA9Z5oqh6DCdtn-34" value="" style="shape=hexagon;perimeter=hexagonPerimeter2;whiteSpace=wrap;html=1;fixedSize=1;strokeColor=#FFFFFF;gradientColor=none;fontSize=20;fontColor=#C4C400;fillColor=#C98D50;" vertex="1" parent="1">
          <mxGeometry x="1423" y="1170" width="170" height="75" as="geometry" />
        </mxCell>
        <mxCell id="OPurnYvA9Z5oqh6DCdtn-35" value="解析模块" style="text;html=1;strokeColor=none;fillColor=none;align=center;verticalAlign=middle;whiteSpace=wrap;rounded=0;fontSize=30;" vertex="1" parent="1">
          <mxGeometry x="1433" y="1197.5" width="150" height="20" as="geometry" />
        </mxCell>
        <mxCell id="OPurnYvA9Z5oqh6DCdtn-36" value="" style="shape=hexagon;perimeter=hexagonPerimeter2;whiteSpace=wrap;html=1;fixedSize=1;strokeColor=#FFFFFF;gradientColor=none;fontSize=20;fontColor=#C4C400;fillColor=#C98D50;" vertex="1" parent="1">
          <mxGeometry x="1613" y="1170" width="170" height="75" as="geometry" />
        </mxCell>
        <mxCell id="OPurnYvA9Z5oqh6DCdtn-37" value="图层获取模块" style="text;html=1;strokeColor=none;fillColor=none;align=center;verticalAlign=middle;whiteSpace=wrap;rounded=0;fontSize=30;" vertex="1" parent="1">
          <mxGeometry x="1628" y="1197.5" width="150" height="20" as="geometry" />
        </mxCell>
        <mxCell id="OPurnYvA9Z5oqh6DCdtn-38" value="" style="shape=hexagon;perimeter=hexagonPerimeter2;whiteSpace=wrap;html=1;fixedSize=1;strokeColor=#FFFFFF;gradientColor=none;fontSize=20;fontColor=#C4C400;fillColor=#C98D50;" vertex="1" parent="1">
          <mxGeometry x="1813" y="1170" width="170" height="75" as="geometry" />
        </mxCell>
        <mxCell id="OPurnYvA9Z5oqh6DCdtn-39" value="" style="shape=hexagon;perimeter=hexagonPerimeter2;whiteSpace=wrap;html=1;fixedSize=1;strokeColor=#FFFFFF;gradientColor=none;fontSize=20;fontColor=#C4C400;fillColor=#C98D50;" vertex="1" parent="1">
          <mxGeometry x="2005.5" y="1170" width="170" height="75" as="geometry" />
        </mxCell>
        <mxCell id="OPurnYvA9Z5oqh6DCdtn-40" value="" style="shape=hexagon;perimeter=hexagonPerimeter2;whiteSpace=wrap;html=1;fixedSize=1;strokeColor=#FFFFFF;gradientColor=none;fontSize=20;fontColor=#C4C400;fillColor=#C98D50;" vertex="1" parent="1">
          <mxGeometry x="2203" y="1170" width="170" height="75" as="geometry" />
        </mxCell>
        <mxCell id="OPurnYvA9Z5oqh6DCdtn-41" value="" style="shape=hexagon;perimeter=hexagonPerimeter2;whiteSpace=wrap;html=1;fixedSize=1;strokeColor=#FFFFFF;gradientColor=none;fontSize=20;fontColor=#C4C400;fillColor=#C98D50;" vertex="1" parent="1">
          <mxGeometry x="1423" y="1325" width="170" height="75" as="geometry" />
        </mxCell>
        <mxCell id="OPurnYvA9Z5oqh6DCdtn-42" value="" style="shape=hexagon;perimeter=hexagonPerimeter2;whiteSpace=wrap;html=1;fixedSize=1;strokeColor=#FFFFFF;gradientColor=none;fontSize=20;fontColor=#C4C400;fillColor=#C98D50;" vertex="1" parent="1">
          <mxGeometry x="1618" y="1325" width="170" height="75" as="geometry" />
        </mxCell>
        <mxCell id="OPurnYvA9Z5oqh6DCdtn-43" value="" style="shape=hexagon;perimeter=hexagonPerimeter2;whiteSpace=wrap;html=1;fixedSize=1;strokeColor=#FFFFFF;gradientColor=none;fontSize=20;fontColor=#C4C400;fillColor=#C98D50;" vertex="1" parent="1">
          <mxGeometry x="1813" y="1325" width="170" height="75" as="geometry" />
        </mxCell>
        <mxCell id="OPurnYvA9Z5oqh6DCdtn-44" value="" style="shape=hexagon;perimeter=hexagonPerimeter2;whiteSpace=wrap;html=1;fixedSize=1;strokeColor=#FFFFFF;gradientColor=none;fontSize=20;fontColor=#C4C400;fillColor=#C98D50;" vertex="1" parent="1">
          <mxGeometry x="2003" y="1325" width="170" height="75" as="geometry" />
        </mxCell>
        <mxCell id="OPurnYvA9Z5oqh6DCdtn-45" value="" style="shape=hexagon;perimeter=hexagonPerimeter2;whiteSpace=wrap;html=1;fixedSize=1;strokeColor=#FFFFFF;gradientColor=none;fontSize=20;fontColor=#C4C400;fillColor=#C98D50;" vertex="1" parent="1">
          <mxGeometry x="2198" y="1325" width="170" height="75" as="geometry" />
        </mxCell>
        <mxCell id="OPurnYvA9Z5oqh6DCdtn-46" value="注册模块" style="text;html=1;strokeColor=none;fillColor=none;align=center;verticalAlign=middle;whiteSpace=wrap;rounded=0;fontSize=30;" vertex="1" parent="1">
          <mxGeometry x="1439" y="1352.5" width="150" height="20" as="geometry" />
        </mxCell>
        <mxCell id="OPurnYvA9Z5oqh6DCdtn-47" value="渲染模块" style="text;html=1;strokeColor=none;fillColor=none;align=center;verticalAlign=middle;whiteSpace=wrap;rounded=0;fontSize=30;" vertex="1" parent="1">
          <mxGeometry x="1633" y="1352.5" width="150" height="20" as="geometry" />
        </mxCell>
        <mxCell id="OPurnYvA9Z5oqh6DCdtn-48" value="工具选择模块" style="text;html=1;strokeColor=none;fillColor=none;align=center;verticalAlign=middle;whiteSpace=wrap;rounded=0;fontSize=30;" vertex="1" parent="1">
          <mxGeometry x="1823" y="1197.5" width="150" height="20" as="geometry" />
        </mxCell>
        <mxCell id="OPurnYvA9Z5oqh6DCdtn-49" value="模型选择模块" style="text;html=1;strokeColor=none;fillColor=none;align=center;verticalAlign=middle;whiteSpace=wrap;rounded=0;fontSize=30;" vertex="1" parent="1">
          <mxGeometry x="1823" y="1352.5" width="150" height="20" as="geometry" />
        </mxCell>
        <mxCell id="OPurnYvA9Z5oqh6DCdtn-50" value="样式添加模块" style="text;html=1;strokeColor=none;fillColor=none;align=center;verticalAlign=middle;whiteSpace=wrap;rounded=0;fontSize=30;" vertex="1" parent="1">
          <mxGeometry x="2015.5" y="1197.5" width="150" height="20" as="geometry" />
        </mxCell>
        <mxCell id="OPurnYvA9Z5oqh6DCdtn-51" value="属性添加模块" style="text;html=1;strokeColor=none;fillColor=none;align=center;verticalAlign=middle;whiteSpace=wrap;rounded=0;fontSize=30;" vertex="1" parent="1">
          <mxGeometry x="2013" y="1352.5" width="150" height="20" as="geometry" />
        </mxCell>
        <mxCell id="OPurnYvA9Z5oqh6DCdtn-52" value="数据读取模块" style="text;html=1;strokeColor=none;fillColor=none;align=center;verticalAlign=middle;whiteSpace=wrap;rounded=0;fontSize=30;" vertex="1" parent="1">
          <mxGeometry x="2208" y="1197.5" width="150" height="20" as="geometry" />
        </mxCell>
        <mxCell id="OPurnYvA9Z5oqh6DCdtn-53" value="数据分发模块" style="text;html=1;strokeColor=none;fillColor=none;align=center;verticalAlign=middle;whiteSpace=wrap;rounded=0;fontSize=30;" vertex="1" parent="1">
          <mxGeometry x="2208" y="1352.5" width="150" height="20" as="geometry" />
        </mxCell>
        <mxCell id="OPurnYvA9Z5oqh6DCdtn-54" style="edgeStyle=orthogonalEdgeStyle;rounded=0;orthogonalLoop=1;jettySize=auto;html=1;exitX=0.5;exitY=1;exitDx=0;exitDy=0;fontSize=20;fontColor=#C4C400;" edge="1" parent="1" source="OPurnYvA9Z5oqh6DCdtn-50" target="OPurnYvA9Z5oqh6DCdtn-50">
          <mxGeometry relative="1" as="geometry" />
        </mxCell>
        <mxCell id="OPurnYvA9Z5oqh6DCdtn-56" value="原理层" style="text;html=1;strokeColor=none;fillColor=none;align=center;verticalAlign=middle;whiteSpace=wrap;rounded=0;fontSize=30;" vertex="1" parent="1">
          <mxGeometry x="1142" y="1625" width="120" height="20" as="geometry" />
        </mxCell>
        <mxCell id="OPurnYvA9Z5oqh6DCdtn-57" value="" style="shape=table;html=1;whiteSpace=wrap;startSize=0;container=1;collapsible=0;childLayout=tableLayout;strokeColor=#FFFFFF;gradientColor=none;fontSize=20;fontColor=#C4C400;fillColor=#8A3838;" vertex="1" parent="1">
          <mxGeometry x="1376" y="1475" width="270" height="150" as="geometry" />
        </mxCell>
        <mxCell id="OPurnYvA9Z5oqh6DCdtn-58" value="" style="shape=partialRectangle;html=1;whiteSpace=wrap;collapsible=0;dropTarget=0;pointerEvents=0;fillColor=none;top=0;left=0;bottom=0;right=0;points=[[0,0.5],[1,0.5]];portConstraint=eastwest;" vertex="1" parent="OPurnYvA9Z5oqh6DCdtn-57">
          <mxGeometry width="270" height="75" as="geometry" />
        </mxCell>
        <mxCell id="OPurnYvA9Z5oqh6DCdtn-59" value="" style="shape=partialRectangle;html=1;whiteSpace=wrap;connectable=0;fillColor=none;top=0;left=0;bottom=0;right=0;overflow=hidden;" vertex="1" parent="OPurnYvA9Z5oqh6DCdtn-58">
          <mxGeometry width="90" height="75" as="geometry" />
        </mxCell>
        <mxCell id="OPurnYvA9Z5oqh6DCdtn-60" value="" style="shape=partialRectangle;html=1;whiteSpace=wrap;connectable=0;fillColor=none;top=0;left=0;bottom=0;right=0;overflow=hidden;" vertex="1" parent="OPurnYvA9Z5oqh6DCdtn-58">
          <mxGeometry x="90" width="90" height="75" as="geometry" />
        </mxCell>
        <mxCell id="OPurnYvA9Z5oqh6DCdtn-61" value="" style="shape=partialRectangle;html=1;whiteSpace=wrap;connectable=0;fillColor=none;top=0;left=0;bottom=0;right=0;overflow=hidden;" vertex="1" parent="OPurnYvA9Z5oqh6DCdtn-58">
          <mxGeometry x="180" width="90" height="75" as="geometry" />
        </mxCell>
        <mxCell id="OPurnYvA9Z5oqh6DCdtn-62" value="" style="shape=partialRectangle;html=1;whiteSpace=wrap;collapsible=0;dropTarget=0;pointerEvents=0;fillColor=none;top=0;left=0;bottom=0;right=0;points=[[0,0.5],[1,0.5]];portConstraint=eastwest;" vertex="1" parent="OPurnYvA9Z5oqh6DCdtn-57">
          <mxGeometry y="75" width="270" height="75" as="geometry" />
        </mxCell>
        <mxCell id="OPurnYvA9Z5oqh6DCdtn-63" value="" style="shape=partialRectangle;html=1;whiteSpace=wrap;connectable=0;fillColor=none;top=0;left=0;bottom=0;right=0;overflow=hidden;" vertex="1" parent="OPurnYvA9Z5oqh6DCdtn-62">
          <mxGeometry width="90" height="75" as="geometry" />
        </mxCell>
        <mxCell id="OPurnYvA9Z5oqh6DCdtn-64" value="" style="shape=partialRectangle;html=1;whiteSpace=wrap;connectable=0;fillColor=none;top=0;left=0;bottom=0;right=0;overflow=hidden;" vertex="1" parent="OPurnYvA9Z5oqh6DCdtn-62">
          <mxGeometry x="90" width="90" height="75" as="geometry" />
        </mxCell>
        <mxCell id="OPurnYvA9Z5oqh6DCdtn-65" value="" style="shape=partialRectangle;html=1;whiteSpace=wrap;connectable=0;fillColor=none;top=0;left=0;bottom=0;right=0;overflow=hidden;" vertex="1" parent="OPurnYvA9Z5oqh6DCdtn-62">
          <mxGeometry x="180" width="90" height="75" as="geometry" />
        </mxCell>
        <mxCell id="OPurnYvA9Z5oqh6DCdtn-70" value="" style="shape=table;html=1;whiteSpace=wrap;startSize=0;container=1;collapsible=0;childLayout=tableLayout;strokeColor=#FFFFFF;gradientColor=none;fontSize=20;fontColor=#C4C400;fillColor=#8A3838;" vertex="1" parent="1">
          <mxGeometry x="1376" y="1670" width="270" height="150" as="geometry" />
        </mxCell>
        <mxCell id="OPurnYvA9Z5oqh6DCdtn-71" value="" style="shape=partialRectangle;html=1;whiteSpace=wrap;collapsible=0;dropTarget=0;pointerEvents=0;fillColor=none;top=0;left=0;bottom=0;right=0;points=[[0,0.5],[1,0.5]];portConstraint=eastwest;" vertex="1" parent="OPurnYvA9Z5oqh6DCdtn-70">
          <mxGeometry width="270" height="75" as="geometry" />
        </mxCell>
        <mxCell id="OPurnYvA9Z5oqh6DCdtn-72" value="" style="shape=partialRectangle;html=1;whiteSpace=wrap;connectable=0;fillColor=none;top=0;left=0;bottom=0;right=0;overflow=hidden;" vertex="1" parent="OPurnYvA9Z5oqh6DCdtn-71">
          <mxGeometry width="90" height="75" as="geometry" />
        </mxCell>
        <mxCell id="OPurnYvA9Z5oqh6DCdtn-73" value="" style="shape=partialRectangle;html=1;whiteSpace=wrap;connectable=0;fillColor=none;top=0;left=0;bottom=0;right=0;overflow=hidden;" vertex="1" parent="OPurnYvA9Z5oqh6DCdtn-71">
          <mxGeometry x="90" width="90" height="75" as="geometry" />
        </mxCell>
        <mxCell id="OPurnYvA9Z5oqh6DCdtn-74" value="" style="shape=partialRectangle;html=1;whiteSpace=wrap;connectable=0;fillColor=none;top=0;left=0;bottom=0;right=0;overflow=hidden;" vertex="1" parent="OPurnYvA9Z5oqh6DCdtn-71">
          <mxGeometry x="180" width="90" height="75" as="geometry" />
        </mxCell>
        <mxCell id="OPurnYvA9Z5oqh6DCdtn-75" value="" style="shape=partialRectangle;html=1;whiteSpace=wrap;collapsible=0;dropTarget=0;pointerEvents=0;fillColor=none;top=0;left=0;bottom=0;right=0;points=[[0,0.5],[1,0.5]];portConstraint=eastwest;" vertex="1" parent="OPurnYvA9Z5oqh6DCdtn-70">
          <mxGeometry y="75" width="270" height="75" as="geometry" />
        </mxCell>
        <mxCell id="OPurnYvA9Z5oqh6DCdtn-76" value="" style="shape=partialRectangle;html=1;whiteSpace=wrap;connectable=0;fillColor=none;top=0;left=0;bottom=0;right=0;overflow=hidden;" vertex="1" parent="OPurnYvA9Z5oqh6DCdtn-75">
          <mxGeometry width="90" height="75" as="geometry" />
        </mxCell>
        <mxCell id="OPurnYvA9Z5oqh6DCdtn-77" value="" style="shape=partialRectangle;html=1;whiteSpace=wrap;connectable=0;fillColor=none;top=0;left=0;bottom=0;right=0;overflow=hidden;" vertex="1" parent="OPurnYvA9Z5oqh6DCdtn-75">
          <mxGeometry x="90" width="90" height="75" as="geometry" />
        </mxCell>
        <mxCell id="OPurnYvA9Z5oqh6DCdtn-78" value="" style="shape=partialRectangle;html=1;whiteSpace=wrap;connectable=0;fillColor=none;top=0;left=0;bottom=0;right=0;overflow=hidden;" vertex="1" parent="OPurnYvA9Z5oqh6DCdtn-75">
          <mxGeometry x="180" width="90" height="75" as="geometry" />
        </mxCell>
        <mxCell id="OPurnYvA9Z5oqh6DCdtn-79" value="" style="shape=table;html=1;whiteSpace=wrap;startSize=0;container=1;collapsible=0;childLayout=tableLayout;strokeColor=#FFFFFF;gradientColor=none;fontSize=20;fontColor=#C4C400;fillColor=#8A3838;" vertex="1" parent="1">
          <mxGeometry x="1646" y="1475" width="270" height="149.99999999999977" as="geometry" />
        </mxCell>
        <mxCell id="OPurnYvA9Z5oqh6DCdtn-80" value="" style="shape=partialRectangle;html=1;whiteSpace=wrap;collapsible=0;dropTarget=0;pointerEvents=0;fillColor=none;top=0;left=0;bottom=0;right=0;points=[[0,0.5],[1,0.5]];portConstraint=eastwest;" vertex="1" parent="OPurnYvA9Z5oqh6DCdtn-79">
          <mxGeometry width="270" height="75" as="geometry" />
        </mxCell>
        <mxCell id="OPurnYvA9Z5oqh6DCdtn-81" value="" style="shape=partialRectangle;html=1;whiteSpace=wrap;connectable=0;fillColor=none;top=0;left=0;bottom=0;right=0;overflow=hidden;" vertex="1" parent="OPurnYvA9Z5oqh6DCdtn-80">
          <mxGeometry width="90" height="75" as="geometry" />
        </mxCell>
        <mxCell id="OPurnYvA9Z5oqh6DCdtn-82" value="" style="shape=partialRectangle;html=1;whiteSpace=wrap;connectable=0;fillColor=none;top=0;left=0;bottom=0;right=0;overflow=hidden;" vertex="1" parent="OPurnYvA9Z5oqh6DCdtn-80">
          <mxGeometry x="90" width="90" height="75" as="geometry" />
        </mxCell>
        <mxCell id="OPurnYvA9Z5oqh6DCdtn-83" value="" style="shape=partialRectangle;html=1;whiteSpace=wrap;connectable=0;fillColor=none;top=0;left=0;bottom=0;right=0;overflow=hidden;" vertex="1" parent="OPurnYvA9Z5oqh6DCdtn-80">
          <mxGeometry x="180" width="90" height="75" as="geometry" />
        </mxCell>
        <mxCell id="OPurnYvA9Z5oqh6DCdtn-84" value="" style="shape=partialRectangle;html=1;whiteSpace=wrap;collapsible=0;dropTarget=0;pointerEvents=0;fillColor=none;top=0;left=0;bottom=0;right=0;points=[[0,0.5],[1,0.5]];portConstraint=eastwest;" vertex="1" parent="OPurnYvA9Z5oqh6DCdtn-79">
          <mxGeometry y="75" width="270" height="75" as="geometry" />
        </mxCell>
        <mxCell id="OPurnYvA9Z5oqh6DCdtn-85" value="" style="shape=partialRectangle;html=1;whiteSpace=wrap;connectable=0;fillColor=none;top=0;left=0;bottom=0;right=0;overflow=hidden;" vertex="1" parent="OPurnYvA9Z5oqh6DCdtn-84">
          <mxGeometry width="90" height="75" as="geometry" />
        </mxCell>
        <mxCell id="OPurnYvA9Z5oqh6DCdtn-86" value="" style="shape=partialRectangle;html=1;whiteSpace=wrap;connectable=0;fillColor=none;top=0;left=0;bottom=0;right=0;overflow=hidden;" vertex="1" parent="OPurnYvA9Z5oqh6DCdtn-84">
          <mxGeometry x="90" width="90" height="75" as="geometry" />
        </mxCell>
        <mxCell id="OPurnYvA9Z5oqh6DCdtn-87" value="" style="shape=partialRectangle;html=1;whiteSpace=wrap;connectable=0;fillColor=none;top=0;left=0;bottom=0;right=0;overflow=hidden;" vertex="1" parent="OPurnYvA9Z5oqh6DCdtn-84">
          <mxGeometry x="180" width="90" height="75" as="geometry" />
        </mxCell>
        <mxCell id="OPurnYvA9Z5oqh6DCdtn-88" value="" style="shape=table;html=1;whiteSpace=wrap;startSize=0;container=1;collapsible=0;childLayout=tableLayout;strokeColor=#FFFFFF;gradientColor=none;fontSize=20;fontColor=#C4C400;fillColor=#8A3838;" vertex="1" parent="1">
          <mxGeometry x="1646" y="1670" width="270" height="150" as="geometry" />
        </mxCell>
        <mxCell id="OPurnYvA9Z5oqh6DCdtn-89" value="" style="shape=partialRectangle;html=1;whiteSpace=wrap;collapsible=0;dropTarget=0;pointerEvents=0;fillColor=none;top=0;left=0;bottom=0;right=0;points=[[0,0.5],[1,0.5]];portConstraint=eastwest;" vertex="1" parent="OPurnYvA9Z5oqh6DCdtn-88">
          <mxGeometry width="270" height="75" as="geometry" />
        </mxCell>
        <mxCell id="OPurnYvA9Z5oqh6DCdtn-90" value="" style="shape=partialRectangle;html=1;whiteSpace=wrap;connectable=0;fillColor=none;top=0;left=0;bottom=0;right=0;overflow=hidden;" vertex="1" parent="OPurnYvA9Z5oqh6DCdtn-89">
          <mxGeometry width="90" height="75" as="geometry" />
        </mxCell>
        <mxCell id="OPurnYvA9Z5oqh6DCdtn-91" value="" style="shape=partialRectangle;html=1;whiteSpace=wrap;connectable=0;fillColor=none;top=0;left=0;bottom=0;right=0;overflow=hidden;" vertex="1" parent="OPurnYvA9Z5oqh6DCdtn-89">
          <mxGeometry x="90" width="90" height="75" as="geometry" />
        </mxCell>
        <mxCell id="OPurnYvA9Z5oqh6DCdtn-92" value="" style="shape=partialRectangle;html=1;whiteSpace=wrap;connectable=0;fillColor=none;top=0;left=0;bottom=0;right=0;overflow=hidden;" vertex="1" parent="OPurnYvA9Z5oqh6DCdtn-89">
          <mxGeometry x="180" width="90" height="75" as="geometry" />
        </mxCell>
        <mxCell id="OPurnYvA9Z5oqh6DCdtn-93" value="" style="shape=partialRectangle;html=1;whiteSpace=wrap;collapsible=0;dropTarget=0;pointerEvents=0;fillColor=none;top=0;left=0;bottom=0;right=0;points=[[0,0.5],[1,0.5]];portConstraint=eastwest;" vertex="1" parent="OPurnYvA9Z5oqh6DCdtn-88">
          <mxGeometry y="75" width="270" height="75" as="geometry" />
        </mxCell>
        <mxCell id="OPurnYvA9Z5oqh6DCdtn-94" value="" style="shape=partialRectangle;html=1;whiteSpace=wrap;connectable=0;fillColor=none;top=0;left=0;bottom=0;right=0;overflow=hidden;" vertex="1" parent="OPurnYvA9Z5oqh6DCdtn-93">
          <mxGeometry width="90" height="75" as="geometry" />
        </mxCell>
        <mxCell id="OPurnYvA9Z5oqh6DCdtn-95" value="" style="shape=partialRectangle;html=1;whiteSpace=wrap;connectable=0;fillColor=none;top=0;left=0;bottom=0;right=0;overflow=hidden;" vertex="1" parent="OPurnYvA9Z5oqh6DCdtn-93">
          <mxGeometry x="90" width="90" height="75" as="geometry" />
        </mxCell>
        <mxCell id="OPurnYvA9Z5oqh6DCdtn-96" value="" style="shape=partialRectangle;html=1;whiteSpace=wrap;connectable=0;fillColor=none;top=0;left=0;bottom=0;right=0;overflow=hidden;" vertex="1" parent="OPurnYvA9Z5oqh6DCdtn-93">
          <mxGeometry x="180" width="90" height="75" as="geometry" />
        </mxCell>
        <mxCell id="OPurnYvA9Z5oqh6DCdtn-97" value="" style="shape=table;html=1;whiteSpace=wrap;startSize=0;container=1;collapsible=0;childLayout=tableLayout;strokeColor=#FFFFFF;gradientColor=none;fontSize=20;fontColor=#C4C400;fillColor=#8A3838;" vertex="1" parent="1">
          <mxGeometry x="1916" y="1475" width="270" height="150" as="geometry" />
        </mxCell>
        <mxCell id="OPurnYvA9Z5oqh6DCdtn-98" value="" style="shape=partialRectangle;html=1;whiteSpace=wrap;collapsible=0;dropTarget=0;pointerEvents=0;fillColor=none;top=0;left=0;bottom=0;right=0;points=[[0,0.5],[1,0.5]];portConstraint=eastwest;" vertex="1" parent="OPurnYvA9Z5oqh6DCdtn-97">
          <mxGeometry width="270" height="75" as="geometry" />
        </mxCell>
        <mxCell id="OPurnYvA9Z5oqh6DCdtn-99" value="" style="shape=partialRectangle;html=1;whiteSpace=wrap;connectable=0;fillColor=none;top=0;left=0;bottom=0;right=0;overflow=hidden;" vertex="1" parent="OPurnYvA9Z5oqh6DCdtn-98">
          <mxGeometry width="90" height="75" as="geometry" />
        </mxCell>
        <mxCell id="OPurnYvA9Z5oqh6DCdtn-100" value="" style="shape=partialRectangle;html=1;whiteSpace=wrap;connectable=0;fillColor=none;top=0;left=0;bottom=0;right=0;overflow=hidden;" vertex="1" parent="OPurnYvA9Z5oqh6DCdtn-98">
          <mxGeometry x="90" width="90" height="75" as="geometry" />
        </mxCell>
        <mxCell id="OPurnYvA9Z5oqh6DCdtn-101" value="" style="shape=partialRectangle;html=1;whiteSpace=wrap;connectable=0;fillColor=none;top=0;left=0;bottom=0;right=0;overflow=hidden;" vertex="1" parent="OPurnYvA9Z5oqh6DCdtn-98">
          <mxGeometry x="180" width="90" height="75" as="geometry" />
        </mxCell>
        <mxCell id="OPurnYvA9Z5oqh6DCdtn-102" value="" style="shape=partialRectangle;html=1;whiteSpace=wrap;collapsible=0;dropTarget=0;pointerEvents=0;fillColor=none;top=0;left=0;bottom=0;right=0;points=[[0,0.5],[1,0.5]];portConstraint=eastwest;" vertex="1" parent="OPurnYvA9Z5oqh6DCdtn-97">
          <mxGeometry y="75" width="270" height="75" as="geometry" />
        </mxCell>
        <mxCell id="OPurnYvA9Z5oqh6DCdtn-103" value="" style="shape=partialRectangle;html=1;whiteSpace=wrap;connectable=0;fillColor=none;top=0;left=0;bottom=0;right=0;overflow=hidden;" vertex="1" parent="OPurnYvA9Z5oqh6DCdtn-102">
          <mxGeometry width="90" height="75" as="geometry" />
        </mxCell>
        <mxCell id="OPurnYvA9Z5oqh6DCdtn-104" value="" style="shape=partialRectangle;html=1;whiteSpace=wrap;connectable=0;fillColor=none;top=0;left=0;bottom=0;right=0;overflow=hidden;" vertex="1" parent="OPurnYvA9Z5oqh6DCdtn-102">
          <mxGeometry x="90" width="90" height="75" as="geometry" />
        </mxCell>
        <mxCell id="OPurnYvA9Z5oqh6DCdtn-105" value="" style="shape=partialRectangle;html=1;whiteSpace=wrap;connectable=0;fillColor=none;top=0;left=0;bottom=0;right=0;overflow=hidden;" vertex="1" parent="OPurnYvA9Z5oqh6DCdtn-102">
          <mxGeometry x="180" width="90" height="75" as="geometry" />
        </mxCell>
        <mxCell id="OPurnYvA9Z5oqh6DCdtn-106" value="" style="shape=table;html=1;whiteSpace=wrap;startSize=0;container=1;collapsible=0;childLayout=tableLayout;strokeColor=#FFFFFF;gradientColor=none;fontSize=20;fontColor=#C4C400;fillColor=#8A3838;" vertex="1" parent="1">
          <mxGeometry x="1916" y="1670" width="270" height="150" as="geometry" />
        </mxCell>
        <mxCell id="OPurnYvA9Z5oqh6DCdtn-107" value="" style="shape=partialRectangle;html=1;whiteSpace=wrap;collapsible=0;dropTarget=0;pointerEvents=0;fillColor=none;top=0;left=0;bottom=0;right=0;points=[[0,0.5],[1,0.5]];portConstraint=eastwest;" vertex="1" parent="OPurnYvA9Z5oqh6DCdtn-106">
          <mxGeometry width="270" height="75" as="geometry" />
        </mxCell>
        <mxCell id="OPurnYvA9Z5oqh6DCdtn-108" value="" style="shape=partialRectangle;html=1;whiteSpace=wrap;connectable=0;fillColor=none;top=0;left=0;bottom=0;right=0;overflow=hidden;" vertex="1" parent="OPurnYvA9Z5oqh6DCdtn-107">
          <mxGeometry width="90" height="75" as="geometry" />
        </mxCell>
        <mxCell id="OPurnYvA9Z5oqh6DCdtn-109" value="" style="shape=partialRectangle;html=1;whiteSpace=wrap;connectable=0;fillColor=none;top=0;left=0;bottom=0;right=0;overflow=hidden;" vertex="1" parent="OPurnYvA9Z5oqh6DCdtn-107">
          <mxGeometry x="90" width="90" height="75" as="geometry" />
        </mxCell>
        <mxCell id="OPurnYvA9Z5oqh6DCdtn-110" value="" style="shape=partialRectangle;html=1;whiteSpace=wrap;connectable=0;fillColor=none;top=0;left=0;bottom=0;right=0;overflow=hidden;" vertex="1" parent="OPurnYvA9Z5oqh6DCdtn-107">
          <mxGeometry x="180" width="90" height="75" as="geometry" />
        </mxCell>
        <mxCell id="OPurnYvA9Z5oqh6DCdtn-111" value="" style="shape=partialRectangle;html=1;whiteSpace=wrap;collapsible=0;dropTarget=0;pointerEvents=0;fillColor=none;top=0;left=0;bottom=0;right=0;points=[[0,0.5],[1,0.5]];portConstraint=eastwest;" vertex="1" parent="OPurnYvA9Z5oqh6DCdtn-106">
          <mxGeometry y="75" width="270" height="75" as="geometry" />
        </mxCell>
        <mxCell id="OPurnYvA9Z5oqh6DCdtn-112" value="" style="shape=partialRectangle;html=1;whiteSpace=wrap;connectable=0;fillColor=none;top=0;left=0;bottom=0;right=0;overflow=hidden;" vertex="1" parent="OPurnYvA9Z5oqh6DCdtn-111">
          <mxGeometry width="90" height="75" as="geometry" />
        </mxCell>
        <mxCell id="OPurnYvA9Z5oqh6DCdtn-113" value="" style="shape=partialRectangle;html=1;whiteSpace=wrap;connectable=0;fillColor=none;top=0;left=0;bottom=0;right=0;overflow=hidden;" vertex="1" parent="OPurnYvA9Z5oqh6DCdtn-111">
          <mxGeometry x="90" width="90" height="75" as="geometry" />
        </mxCell>
        <mxCell id="OPurnYvA9Z5oqh6DCdtn-114" value="" style="shape=partialRectangle;html=1;whiteSpace=wrap;connectable=0;fillColor=none;top=0;left=0;bottom=0;right=0;overflow=hidden;" vertex="1" parent="OPurnYvA9Z5oqh6DCdtn-111">
          <mxGeometry x="180" width="90" height="75" as="geometry" />
        </mxCell>
        <mxCell id="OPurnYvA9Z5oqh6DCdtn-115" value="" style="shape=table;html=1;whiteSpace=wrap;startSize=0;container=1;collapsible=0;childLayout=tableLayout;strokeColor=#FFFFFF;gradientColor=none;fontSize=20;fontColor=#C4C400;fillColor=#8A3838;" vertex="1" parent="1">
          <mxGeometry x="2186" y="1475" width="270" height="150" as="geometry" />
        </mxCell>
        <mxCell id="OPurnYvA9Z5oqh6DCdtn-116" value="" style="shape=partialRectangle;html=1;whiteSpace=wrap;collapsible=0;dropTarget=0;pointerEvents=0;fillColor=none;top=0;left=0;bottom=0;right=0;points=[[0,0.5],[1,0.5]];portConstraint=eastwest;" vertex="1" parent="OPurnYvA9Z5oqh6DCdtn-115">
          <mxGeometry width="270" height="75" as="geometry" />
        </mxCell>
        <mxCell id="OPurnYvA9Z5oqh6DCdtn-117" value="" style="shape=partialRectangle;html=1;whiteSpace=wrap;connectable=0;fillColor=none;top=0;left=0;bottom=0;right=0;overflow=hidden;" vertex="1" parent="OPurnYvA9Z5oqh6DCdtn-116">
          <mxGeometry width="90" height="75" as="geometry" />
        </mxCell>
        <mxCell id="OPurnYvA9Z5oqh6DCdtn-118" value="" style="shape=partialRectangle;html=1;whiteSpace=wrap;connectable=0;fillColor=none;top=0;left=0;bottom=0;right=0;overflow=hidden;" vertex="1" parent="OPurnYvA9Z5oqh6DCdtn-116">
          <mxGeometry x="90" width="90" height="75" as="geometry" />
        </mxCell>
        <mxCell id="OPurnYvA9Z5oqh6DCdtn-119" value="" style="shape=partialRectangle;html=1;whiteSpace=wrap;connectable=0;fillColor=none;top=0;left=0;bottom=0;right=0;overflow=hidden;" vertex="1" parent="OPurnYvA9Z5oqh6DCdtn-116">
          <mxGeometry x="180" width="90" height="75" as="geometry" />
        </mxCell>
        <mxCell id="OPurnYvA9Z5oqh6DCdtn-120" value="" style="shape=partialRectangle;html=1;whiteSpace=wrap;collapsible=0;dropTarget=0;pointerEvents=0;fillColor=none;top=0;left=0;bottom=0;right=0;points=[[0,0.5],[1,0.5]];portConstraint=eastwest;" vertex="1" parent="OPurnYvA9Z5oqh6DCdtn-115">
          <mxGeometry y="75" width="270" height="75" as="geometry" />
        </mxCell>
        <mxCell id="OPurnYvA9Z5oqh6DCdtn-121" value="" style="shape=partialRectangle;html=1;whiteSpace=wrap;connectable=0;fillColor=none;top=0;left=0;bottom=0;right=0;overflow=hidden;" vertex="1" parent="OPurnYvA9Z5oqh6DCdtn-120">
          <mxGeometry width="90" height="75" as="geometry" />
        </mxCell>
        <mxCell id="OPurnYvA9Z5oqh6DCdtn-122" value="" style="shape=partialRectangle;html=1;whiteSpace=wrap;connectable=0;fillColor=none;top=0;left=0;bottom=0;right=0;overflow=hidden;" vertex="1" parent="OPurnYvA9Z5oqh6DCdtn-120">
          <mxGeometry x="90" width="90" height="75" as="geometry" />
        </mxCell>
        <mxCell id="OPurnYvA9Z5oqh6DCdtn-123" value="" style="shape=partialRectangle;html=1;whiteSpace=wrap;connectable=0;fillColor=none;top=0;left=0;bottom=0;right=0;overflow=hidden;" vertex="1" parent="OPurnYvA9Z5oqh6DCdtn-120">
          <mxGeometry x="180" width="90" height="75" as="geometry" />
        </mxCell>
        <mxCell id="OPurnYvA9Z5oqh6DCdtn-124" value="" style="shape=table;html=1;whiteSpace=wrap;startSize=0;container=1;collapsible=0;childLayout=tableLayout;strokeColor=#FFFFFF;gradientColor=none;fontSize=20;fontColor=#C4C400;fillColor=#8A3838;" vertex="1" parent="1">
          <mxGeometry x="2186" y="1670" width="270" height="150" as="geometry" />
        </mxCell>
        <mxCell id="OPurnYvA9Z5oqh6DCdtn-125" value="" style="shape=partialRectangle;html=1;whiteSpace=wrap;collapsible=0;dropTarget=0;pointerEvents=0;fillColor=none;top=0;left=0;bottom=0;right=0;points=[[0,0.5],[1,0.5]];portConstraint=eastwest;" vertex="1" parent="OPurnYvA9Z5oqh6DCdtn-124">
          <mxGeometry width="270" height="75" as="geometry" />
        </mxCell>
        <mxCell id="OPurnYvA9Z5oqh6DCdtn-126" value="" style="shape=partialRectangle;html=1;whiteSpace=wrap;connectable=0;fillColor=none;top=0;left=0;bottom=0;right=0;overflow=hidden;" vertex="1" parent="OPurnYvA9Z5oqh6DCdtn-125">
          <mxGeometry width="90" height="75" as="geometry" />
        </mxCell>
        <mxCell id="OPurnYvA9Z5oqh6DCdtn-127" value="" style="shape=partialRectangle;html=1;whiteSpace=wrap;connectable=0;fillColor=none;top=0;left=0;bottom=0;right=0;overflow=hidden;" vertex="1" parent="OPurnYvA9Z5oqh6DCdtn-125">
          <mxGeometry x="90" width="90" height="75" as="geometry" />
        </mxCell>
        <mxCell id="OPurnYvA9Z5oqh6DCdtn-128" value="" style="shape=partialRectangle;html=1;whiteSpace=wrap;connectable=0;fillColor=none;top=0;left=0;bottom=0;right=0;overflow=hidden;" vertex="1" parent="OPurnYvA9Z5oqh6DCdtn-125">
          <mxGeometry x="180" width="90" height="75" as="geometry" />
        </mxCell>
        <mxCell id="OPurnYvA9Z5oqh6DCdtn-129" value="" style="shape=partialRectangle;html=1;whiteSpace=wrap;collapsible=0;dropTarget=0;pointerEvents=0;fillColor=none;top=0;left=0;bottom=0;right=0;points=[[0,0.5],[1,0.5]];portConstraint=eastwest;" vertex="1" parent="OPurnYvA9Z5oqh6DCdtn-124">
          <mxGeometry y="75" width="270" height="75" as="geometry" />
        </mxCell>
        <mxCell id="OPurnYvA9Z5oqh6DCdtn-130" value="" style="shape=partialRectangle;html=1;whiteSpace=wrap;connectable=0;fillColor=none;top=0;left=0;bottom=0;right=0;overflow=hidden;" vertex="1" parent="OPurnYvA9Z5oqh6DCdtn-129">
          <mxGeometry width="90" height="75" as="geometry" />
        </mxCell>
        <mxCell id="OPurnYvA9Z5oqh6DCdtn-131" value="" style="shape=partialRectangle;html=1;whiteSpace=wrap;connectable=0;fillColor=none;top=0;left=0;bottom=0;right=0;overflow=hidden;" vertex="1" parent="OPurnYvA9Z5oqh6DCdtn-129">
          <mxGeometry x="90" width="90" height="75" as="geometry" />
        </mxCell>
        <mxCell id="OPurnYvA9Z5oqh6DCdtn-132" value="" style="shape=partialRectangle;html=1;whiteSpace=wrap;connectable=0;fillColor=none;top=0;left=0;bottom=0;right=0;overflow=hidden;" vertex="1" parent="OPurnYvA9Z5oqh6DCdtn-129">
          <mxGeometry x="180" width="90" height="75" as="geometry" />
        </mxCell>
        <mxCell id="OPurnYvA9Z5oqh6DCdtn-134" value="接口信息注册" style="text;html=1;strokeColor=none;fillColor=none;align=center;verticalAlign=middle;whiteSpace=wrap;rounded=0;fontSize=20;fontColor=#FFFFFF;" vertex="1" parent="1">
          <mxGeometry x="1384" y="1500" width="80" height="20" as="geometry" />
        </mxCell>
        <mxCell id="OPurnYvA9Z5oqh6DCdtn-135" value="函数注册" style="text;html=1;strokeColor=none;fillColor=none;align=center;verticalAlign=middle;whiteSpace=wrap;rounded=0;fontSize=20;fontColor=#FFFFFF;" vertex="1" parent="1">
          <mxGeometry x="1478" y="1500" width="60" height="20" as="geometry" />
        </mxCell>
        <mxCell id="OPurnYvA9Z5oqh6DCdtn-136" value="位移分析" style="text;html=1;strokeColor=none;fillColor=none;align=center;verticalAlign=middle;whiteSpace=wrap;rounded=0;fontSize=20;fontColor=#FFFFFF;" vertex="1" parent="1">
          <mxGeometry x="1398" y="1580" width="52" height="20" as="geometry" />
        </mxCell>
        <mxCell id="OPurnYvA9Z5oqh6DCdtn-137" value="地图总信息加载" style="text;html=1;strokeColor=none;fillColor=none;align=center;verticalAlign=middle;whiteSpace=wrap;rounded=0;fontSize=20;fontColor=#FFFFFF;" vertex="1" parent="1">
          <mxGeometry x="1384" y="1700" width="80" height="20" as="geometry" />
        </mxCell>
        <mxCell id="OPurnYvA9Z5oqh6DCdtn-138" value="渲染树建立" style="text;html=1;strokeColor=none;fillColor=none;align=center;verticalAlign=middle;whiteSpace=wrap;rounded=0;fontSize=20;fontColor=#FFFFFF;" vertex="1" parent="1">
          <mxGeometry x="1384" y="1770" width="80" height="20" as="geometry" />
        </mxCell>
        <mxCell id="OPurnYvA9Z5oqh6DCdtn-139" value="通视分析" style="text;html=1;strokeColor=none;fillColor=none;align=center;verticalAlign=middle;whiteSpace=wrap;rounded=0;fontSize=20;fontColor=#FFFFFF;" vertex="1" parent="1">
          <mxGeometry x="1482" y="1580" width="52" height="20" as="geometry" />
        </mxCell>
        <mxCell id="OPurnYvA9Z5oqh6DCdtn-140" value="影像图层加载" style="text;html=1;strokeColor=none;fillColor=none;align=center;verticalAlign=middle;whiteSpace=wrap;rounded=0;fontSize=20;fontColor=#FFFFFF;" vertex="1" parent="1">
          <mxGeometry x="1466" y="1700" width="80" height="20" as="geometry" />
        </mxCell>
        <mxCell id="OPurnYvA9Z5oqh6DCdtn-141" value="裁剪器执行" style="text;html=1;strokeColor=none;fillColor=none;align=center;verticalAlign=middle;whiteSpace=wrap;rounded=0;fontSize=20;fontColor=#FFFFFF;" vertex="1" parent="1">
          <mxGeometry x="1466" y="1770" width="80" height="20" as="geometry" />
        </mxCell>
        <mxCell id="OPurnYvA9Z5oqh6DCdtn-142" value="组件注册" style="text;html=1;strokeColor=none;fillColor=none;align=center;verticalAlign=middle;whiteSpace=wrap;rounded=0;fontSize=20;fontColor=#FFFFFF;" vertex="1" parent="1">
          <mxGeometry x="1575" y="1500" width="53" height="20" as="geometry" />
        </mxCell>
        <mxCell id="OPurnYvA9Z5oqh6DCdtn-143" value="模型分析" style="text;html=1;strokeColor=none;fillColor=none;align=center;verticalAlign=middle;whiteSpace=wrap;rounded=0;fontSize=20;fontColor=#FFFFFF;" vertex="1" parent="1">
          <mxGeometry x="1575" y="1580" width="53" height="20" as="geometry" />
        </mxCell>
        <mxCell id="OPurnYvA9Z5oqh6DCdtn-144" value="高程图层加载" style="text;html=1;strokeColor=none;fillColor=none;align=center;verticalAlign=middle;whiteSpace=wrap;rounded=0;fontSize=20;fontColor=#FFFFFF;" vertex="1" parent="1">
          <mxGeometry x="1561.5" y="1700" width="80" height="20" as="geometry" />
        </mxCell>
        <mxCell id="OPurnYvA9Z5oqh6DCdtn-146" value="渲染叶确定" style="text;html=1;strokeColor=none;fillColor=none;align=center;verticalAlign=middle;whiteSpace=wrap;rounded=0;fontSize=20;fontColor=#FFFFFF;" vertex="1" parent="1">
          <mxGeometry x="1569" y="1770" width="80" height="20" as="geometry" />
        </mxCell>
        <mxCell id="OPurnYvA9Z5oqh6DCdtn-147" value="消息注册" style="text;html=1;strokeColor=none;fillColor=none;align=center;verticalAlign=middle;whiteSpace=wrap;rounded=0;fontSize=20;fontColor=#FFFFFF;" vertex="1" parent="1">
          <mxGeometry x="1663.5" y="1500" width="60" height="20" as="geometry" />
        </mxCell>
        <mxCell id="OPurnYvA9Z5oqh6DCdtn-148" value="图层分析" style="text;html=1;strokeColor=none;fillColor=none;align=center;verticalAlign=middle;whiteSpace=wrap;rounded=0;fontSize=20;fontColor=#FFFFFF;" vertex="1" parent="1">
          <mxGeometry x="1666.5" y="1580" width="57" height="20" as="geometry" />
        </mxCell>
        <mxCell id="OPurnYvA9Z5oqh6DCdtn-149" value="模型图层加载" style="text;html=1;strokeColor=none;fillColor=none;align=center;verticalAlign=middle;whiteSpace=wrap;rounded=0;fontSize=20;fontColor=#FFFFFF;" vertex="1" parent="1">
          <mxGeometry x="1653.5" y="1700" width="80" height="20" as="geometry" />
        </mxCell>
        <mxCell id="OPurnYvA9Z5oqh6DCdtn-150" value="渲染状态树建立" style="text;html=1;strokeColor=none;fillColor=none;align=center;verticalAlign=middle;whiteSpace=wrap;rounded=0;fontSize=20;fontColor=#FFFFFF;" vertex="1" parent="1">
          <mxGeometry x="1649" y="1770" width="80" height="20" as="geometry" />
        </mxCell>
        <mxCell id="OPurnYvA9Z5oqh6DCdtn-151" value="工具注册" style="text;html=1;strokeColor=none;fillColor=none;align=center;verticalAlign=middle;whiteSpace=wrap;rounded=0;fontSize=20;fontColor=#FFFFFF;" vertex="1" parent="1">
          <mxGeometry x="1756.5" y="1500" width="58" height="20" as="geometry" />
        </mxCell>
        <mxCell id="OPurnYvA9Z5oqh6DCdtn-152" value="场景分析" style="text;html=1;strokeColor=none;fillColor=none;align=center;verticalAlign=middle;whiteSpace=wrap;rounded=0;fontSize=20;fontColor=#FFFFFF;" vertex="1" parent="1">
          <mxGeometry x="1752" y="1580" width="58" height="20" as="geometry" />
        </mxCell>
        <mxCell id="OPurnYvA9Z5oqh6DCdtn-153" value="掩饰图层加载" style="text;html=1;strokeColor=none;fillColor=none;align=center;verticalAlign=middle;whiteSpace=wrap;rounded=0;fontSize=20;fontColor=#FFFFFF;" vertex="1" parent="1">
          <mxGeometry x="1741" y="1700" width="80" height="20" as="geometry" />
        </mxCell>
        <mxCell id="OPurnYvA9Z5oqh6DCdtn-154" value="渲染工具执行" style="text;html=1;strokeColor=none;fillColor=none;align=center;verticalAlign=middle;whiteSpace=wrap;rounded=0;fontSize=20;fontColor=#FFFFFF;" vertex="1" parent="1">
          <mxGeometry x="1743" y="1770" width="80" height="20" as="geometry" />
        </mxCell>
        <mxCell id="OPurnYvA9Z5oqh6DCdtn-155" value="属性注册" style="text;html=1;strokeColor=none;fillColor=none;align=center;verticalAlign=middle;whiteSpace=wrap;rounded=0;fontSize=20;fontColor=#FFFFFF;" vertex="1" parent="1">
          <mxGeometry x="1846" y="1500" width="60" height="20" as="geometry" />
        </mxCell>
        <mxCell id="OPurnYvA9Z5oqh6DCdtn-156" value="视图分析" style="text;html=1;strokeColor=none;fillColor=none;align=center;verticalAlign=middle;whiteSpace=wrap;rounded=0;fontSize=20;fontColor=#FFFFFF;" vertex="1" parent="1">
          <mxGeometry x="1846" y="1580" width="60.5" height="20" as="geometry" />
        </mxCell>
        <mxCell id="OPurnYvA9Z5oqh6DCdtn-157" value="图层叠加" style="text;html=1;strokeColor=none;fillColor=none;align=center;verticalAlign=middle;whiteSpace=wrap;rounded=0;fontSize=20;fontColor=#FFFFFF;" vertex="1" parent="1">
          <mxGeometry x="1843.5" y="1700" width="60" height="20" as="geometry" />
        </mxCell>
        <mxCell id="OPurnYvA9Z5oqh6DCdtn-158" value="渲染状态执行" style="text;html=1;strokeColor=none;fillColor=none;align=center;verticalAlign=middle;whiteSpace=wrap;rounded=0;fontSize=20;fontColor=#FFFFFF;" vertex="1" parent="1">
          <mxGeometry x="1825.5" y="1770" width="80" height="20" as="geometry" />
        </mxCell>
        <mxCell id="OPurnYvA9Z5oqh6DCdtn-159" value="命令注册" style="text;html=1;strokeColor=none;fillColor=none;align=center;verticalAlign=middle;whiteSpace=wrap;rounded=0;fontSize=20;fontColor=#FFFFFF;" vertex="1" parent="1">
          <mxGeometry x="1936.5" y="1500" width="53" height="20" as="geometry" />
        </mxCell>
        <mxCell id="OPurnYvA9Z5oqh6DCdtn-160" value="事件分析" style="text;html=1;strokeColor=none;fillColor=none;align=center;verticalAlign=middle;whiteSpace=wrap;rounded=0;fontSize=20;fontColor=#FFFFFF;" vertex="1" parent="1">
          <mxGeometry x="1938" y="1580" width="50" height="20" as="geometry" />
        </mxCell>
        <mxCell id="OPurnYvA9Z5oqh6DCdtn-161" value="模型加载" style="text;html=1;strokeColor=none;fillColor=none;align=center;verticalAlign=middle;whiteSpace=wrap;rounded=0;fontSize=20;fontColor=#FFFFFF;" vertex="1" parent="1">
          <mxGeometry x="1938" y="1700" width="53" height="20" as="geometry" />
        </mxCell>
        <mxCell id="OPurnYvA9Z5oqh6DCdtn-162" value="场景视图获取" style="text;html=1;strokeColor=none;fillColor=none;align=center;verticalAlign=middle;whiteSpace=wrap;rounded=0;fontSize=20;fontColor=#FFFFFF;" vertex="1" parent="1">
          <mxGeometry x="1923" y="1770" width="80" height="20" as="geometry" />
        </mxCell>
        <mxCell id="OPurnYvA9Z5oqh6DCdtn-163" value="接口分析" style="text;html=1;strokeColor=none;fillColor=none;align=center;verticalAlign=middle;whiteSpace=wrap;rounded=0;fontSize=20;fontColor=#FFFFFF;" vertex="1" parent="1">
          <mxGeometry x="2031.5" y="1500" width="43" height="20" as="geometry" />
        </mxCell>
        <mxCell id="OPurnYvA9Z5oqh6DCdtn-164" value="变换分析" style="text;html=1;strokeColor=none;fillColor=none;align=center;verticalAlign=middle;whiteSpace=wrap;rounded=0;fontSize=20;fontColor=#FFFFFF;" vertex="1" parent="1">
          <mxGeometry x="2025.5" y="1580" width="55" height="20" as="geometry" />
        </mxCell>
        <mxCell id="OPurnYvA9Z5oqh6DCdtn-165" value="轨迹加载" style="text;html=1;strokeColor=none;fillColor=none;align=center;verticalAlign=middle;whiteSpace=wrap;rounded=0;fontSize=20;fontColor=#FFFFFF;" vertex="1" parent="1">
          <mxGeometry x="2023.5" y="1700" width="55" height="20" as="geometry" />
        </mxCell>
        <mxCell id="OPurnYvA9Z5oqh6DCdtn-166" value="场景加载" style="text;html=1;strokeColor=none;fillColor=none;align=center;verticalAlign=middle;whiteSpace=wrap;rounded=0;fontSize=20;fontColor=#FFFFFF;" vertex="1" parent="1">
          <mxGeometry x="2018" y="1770" width="60.5" height="20" as="geometry" />
        </mxCell>
        <mxCell id="OPurnYvA9Z5oqh6DCdtn-167" value="工具分析" style="text;html=1;strokeColor=none;fillColor=none;align=center;verticalAlign=middle;whiteSpace=wrap;rounded=0;fontSize=20;fontColor=#FFFFFF;" vertex="1" parent="1">
          <mxGeometry x="2105.25" y="1500" width="60.5" height="20" as="geometry" />
        </mxCell>
        <mxCell id="OPurnYvA9Z5oqh6DCdtn-168" value="数据读取组件加载" style="text;html=1;strokeColor=none;fillColor=none;align=center;verticalAlign=middle;whiteSpace=wrap;rounded=0;fontSize=20;fontColor=#FFFFFF;" vertex="1" parent="1">
          <mxGeometry x="2095.5" y="1580" width="80" height="20" as="geometry" />
        </mxCell>
        <mxCell id="OPurnYvA9Z5oqh6DCdtn-169" value="模型属性加载" style="text;html=1;strokeColor=none;fillColor=none;align=center;verticalAlign=middle;whiteSpace=wrap;rounded=0;fontSize=20;fontColor=#FFFFFF;" vertex="1" parent="1">
          <mxGeometry x="2095.5" y="1700" width="80" height="20" as="geometry" />
        </mxCell>
        <mxCell id="OPurnYvA9Z5oqh6DCdtn-170" value="摄像机记录" style="text;html=1;strokeColor=none;fillColor=none;align=center;verticalAlign=middle;whiteSpace=wrap;rounded=0;fontSize=20;fontColor=#FFFFFF;" vertex="1" parent="1">
          <mxGeometry x="2095.5" y="1770" width="80" height="20" as="geometry" />
        </mxCell>
        <mxCell id="OPurnYvA9Z5oqh6DCdtn-171" value="消息分析" style="text;html=1;strokeColor=none;fillColor=none;align=center;verticalAlign=middle;whiteSpace=wrap;rounded=0;fontSize=20;fontColor=#FFFFFF;" vertex="1" parent="1">
          <mxGeometry x="2203" y="1500" width="60" height="20" as="geometry" />
        </mxCell>
        <mxCell id="OPurnYvA9Z5oqh6DCdtn-172" value="数据分析处理" style="text;html=1;strokeColor=none;fillColor=none;align=center;verticalAlign=middle;whiteSpace=wrap;rounded=0;fontSize=20;fontColor=#FFFFFF;" vertex="1" parent="1">
          <mxGeometry x="2186" y="1580" width="80" height="20" as="geometry" />
        </mxCell>
        <mxCell id="OPurnYvA9Z5oqh6DCdtn-173" value="坐标变换" style="text;html=1;strokeColor=none;fillColor=none;align=center;verticalAlign=middle;whiteSpace=wrap;rounded=0;fontSize=20;fontColor=#FFFFFF;" vertex="1" parent="1">
          <mxGeometry x="2208" y="1700" width="50" height="20" as="geometry" />
        </mxCell>
        <mxCell id="OPurnYvA9Z5oqh6DCdtn-174" value="事件处理" style="text;html=1;strokeColor=none;fillColor=none;align=center;verticalAlign=middle;whiteSpace=wrap;rounded=0;fontSize=20;fontColor=#FFFFFF;" vertex="1" parent="1">
          <mxGeometry x="2203" y="1770" width="60" height="20" as="geometry" />
        </mxCell>
        <mxCell id="OPurnYvA9Z5oqh6DCdtn-175" value="命令分析" style="text;html=1;strokeColor=none;fillColor=none;align=center;verticalAlign=middle;whiteSpace=wrap;rounded=0;fontSize=20;fontColor=#FFFFFF;" vertex="1" parent="1">
          <mxGeometry x="2293.5" y="1500" width="55" height="20" as="geometry" />
        </mxCell>
        <mxCell id="OPurnYvA9Z5oqh6DCdtn-176" value="数据列表建立" style="text;html=1;strokeColor=none;fillColor=none;align=center;verticalAlign=middle;whiteSpace=wrap;rounded=0;fontSize=20;fontColor=#FFFFFF;" vertex="1" parent="1">
          <mxGeometry x="2288" y="1580" width="80" height="20" as="geometry" />
        </mxCell>
        <mxCell id="OPurnYvA9Z5oqh6DCdtn-177" value="筛选器执行" style="text;html=1;strokeColor=none;fillColor=none;align=center;verticalAlign=middle;whiteSpace=wrap;rounded=0;fontSize=20;fontColor=#FFFFFF;" vertex="1" parent="1">
          <mxGeometry x="2276" y="1700" width="80" height="20" as="geometry" />
        </mxCell>
        <mxCell id="OPurnYvA9Z5oqh6DCdtn-178" value="漫游器执行" style="text;html=1;strokeColor=none;fillColor=none;align=center;verticalAlign=middle;whiteSpace=wrap;rounded=0;fontSize=20;fontColor=#FFFFFF;" vertex="1" parent="1">
          <mxGeometry x="2288" y="1770" width="80" height="20" as="geometry" />
        </mxCell>
        <mxCell id="OPurnYvA9Z5oqh6DCdtn-179" value="坐标分析" style="text;html=1;strokeColor=none;fillColor=none;align=center;verticalAlign=middle;whiteSpace=wrap;rounded=0;fontSize=20;fontColor=#FFFFFF;" vertex="1" parent="1">
          <mxGeometry x="2386" y="1500" width="58" height="20" as="geometry" />
        </mxCell>
        <mxCell id="OPurnYvA9Z5oqh6DCdtn-180" value="数据分发" style="text;html=1;strokeColor=none;fillColor=none;align=center;verticalAlign=middle;whiteSpace=wrap;rounded=0;fontSize=20;fontColor=#FFFFFF;" vertex="1" parent="1">
          <mxGeometry x="2386" y="1580" width="60" height="20" as="geometry" />
        </mxCell>
        <mxCell id="OPurnYvA9Z5oqh6DCdtn-181" value="渲染元确定" style="text;html=1;strokeColor=none;fillColor=none;align=center;verticalAlign=middle;whiteSpace=wrap;rounded=0;fontSize=20;fontColor=#FFFFFF;" vertex="1" parent="1">
          <mxGeometry x="2376" y="1700" width="80" height="20" as="geometry" />
        </mxCell>
        <mxCell id="OPurnYvA9Z5oqh6DCdtn-182" value="视图加载" style="text;html=1;strokeColor=none;fillColor=none;align=center;verticalAlign=middle;whiteSpace=wrap;rounded=0;fontSize=20;fontColor=#FFFFFF;" vertex="1" parent="1">
          <mxGeometry x="2376" y="1770" width="80" height="20" as="geometry" />
        </mxCell>
      </root>
    </mxGraphModel>
  </diagram>
</mxfile>
